<?xml version="1.0" standalone="no"?>
<!DOCTYPE svg PUBLIC "-//W3C//DTD SVG 20010904//EN"
 "http://www.w3.org/TR/2001/REC-SVG-20010904/DTD/svg10.dtd">
<svg version="1.0" xmlns="http://www.w3.org/2000/svg"
 width="327.000000pt" height="420.000000pt" viewBox="0 0 327.000000 420.000000"
 preserveAspectRatio="xMidYMid meet">

<g transform="translate(0.000000,420.000000) scale(0.100000,-0.100000)"
fill="#000000" stroke="none">
<path d="M1273 4001 c-119 -55 -87 -241 41 -241 52 0 84 19 98 57 7 18 15 33
19 33 12 0 68 -69 88 -108 53 -103 55 -130 56 -547 0 -381 -6 -478 -41 -672
-6 -30 -4 -33 19 -33 23 0 25 3 31 78 32 387 39 1014 13 1159 -23 127 -90 237
-169 279 -37 19 -105 17 -155 -5z"/>
<path d="M1095 3566 c-43 -18 -93 -79 -101 -122 -10 -56 2 -142 30 -198 14
-28 71 -112 126 -186 144 -192 207 -332 217 -482 l6 -78 35 0 35 0 -7 53 c-12
98 -65 242 -155 424 -91 184 -111 247 -111 345 l0 47 36 -24 c79 -53 174 -16
159 63 -8 44 -37 101 -62 124 -49 45 -147 61 -208 34z"/>
<path d="M1888 3304 c-26 -9 -66 -32 -88 -51 -77 -66 -85 -101 -111 -448 -6
-88 -17 -199 -23 -247 -13 -92 -12 -93 32 -82 22 6 22 7 22 208 1 370 32 485
151 550 53 30 129 35 182 12 100 -41 138 -182 76 -283 -26 -42 -99 -77 -143
-69 -73 14 -106 96 -65 163 l23 38 -24 -16 c-84 -54 -72 -176 22 -225 55 -29
153 -10 206 39 59 55 89 189 62 271 -16 49 -63 102 -112 127 -54 28 -151 33
-210 13z"/>
<path d="M1872 2703 c-42 -21 -60 -47 -78 -119 -17 -64 -12 -83 9 -33 8 19 21
40 31 48 14 12 20 11 39 -8 41 -37 95 -24 117 28 32 78 -35 125 -118 84z"/>
<path d="M1092 2689 c-63 -41 -52 -107 24 -140 53 -24 66 -19 36 14 -25 26
-28 56 -9 79 32 40 76 26 118 -39 l31 -48 -7 35 c-21 107 -110 152 -193 99z"/>
<path d="M1320 2409 c-296 -34 -545 -178 -605 -349 -40 -113 2 -191 152 -287
l54 -34 53 54 c138 139 276 143 400 9 116 -124 125 -132 161 -132 37 0 45 9
109 122 44 79 83 76 156 -12 109 -131 232 -136 349 -17 41 43 43 48 37 87 -9
59 -31 96 -94 162 -284 298 -998 358 -1251 106 l-44 -43 6 44 c14 108 161 200
387 241 226 42 647 -28 881 -145 161 -81 262 -164 307 -250 21 -39 26 -64 26
-115 -1 -62 -7 -83 -50 -162 -23 -42 -107 -112 -176 -145 -258 -127 -618 -146
-988 -52 -134 34 -190 60 -284 131 -118 90 -114 88 -89 53 31 -43 110 -117
166 -155 173 -115 450 -173 721 -150 152 13 323 54 431 104 43 20 79 36 81 36
15 0 -18 -233 -51 -357 -78 -297 -234 -417 -573 -439 -174 -12 -346 20 -473
88 -103 54 -227 185 -274 289 l-16 34 7 -35 c10 -56 53 -156 95 -220 132 -205
368 -304 684 -287 302 17 507 143 636 392 21 41 40 68 42 62 2 -7 13 7 25 30
38 74 103 110 279 153 91 23 130 38 173 67 97 67 148 169 136 271 -13 109 -84
197 -180 223 -77 21 -212 9 -252 -22 -8 -6 -9 5 -4 37 15 98 -20 188 -110 286
-212 232 -656 371 -1040 327z m1385 -670 c76 -21 145 -115 145 -198 0 -78 -66
-174 -151 -217 -27 -13 -89 -35 -137 -48 -108 -29 -181 -65 -217 -108 -18 -21
-26 -25 -21 -13 4 11 12 41 18 68 6 26 17 47 23 47 7 0 20 9 31 21 27 30 60
45 150 69 122 33 167 76 166 158 -3 108 -101 158 -226 116 -43 -15 -67 -37
-53 -50 3 -3 22 4 43 15 56 30 124 28 163 -5 80 -67 31 -172 -94 -204 -73 -19
-125 -42 -157 -68 -26 -22 -30 -23 -25 -6 11 34 35 187 42 264 10 106 25 133
83 152 56 19 161 22 217 7z"/>
<path d="M454 1213 c15 -146 82 -290 201 -432 255 -303 568 -489 931 -551 165
-29 402 -29 534 -1 160 33 328 117 405 203 93 102 129 265 85 380 -52 139
-213 229 -303 170 l-27 -18 64 -52 c121 -96 156 -175 132 -290 -37 -179 -93
-222 -381 -293 -231 -57 -430 -48 -655 27 -118 39 -299 131 -396 200 -223 159
-413 382 -538 632 -25 50 -49 92 -52 92 -4 0 -4 -30 0 -67z"/>
</g>
</svg>
