<?xml version="1.0" encoding="UTF-8" standalone="no"?>
<!DOCTYPE svg PUBLIC "-//W3C//DTD SVG 1.1//EN"
 "http://www.w3.org/Graphics/SVG/1.1/DTD/svg11.dtd">
<!-- Generated by graphviz version 2.43.0 (0)
 -->
<!-- Title: controllers_diagram Pages: 1 -->
<svg width="848pt" height="762pt"
 viewBox="0.00 0.00 848.00 762.00" xmlns="http://www.w3.org/2000/svg" xmlns:xlink="http://www.w3.org/1999/xlink">
<g id="graph0" class="graph" transform="scale(1 1) rotate(0) translate(4 758)">
<title>controllers_diagram</title>
<polygon fill="transparent" stroke="transparent" points="-4,4 -4,-758 844,-758 844,4 -4,4"/>
<!-- _diagram_info -->
<g id="node1" class="node">
<title>_diagram_info</title>
<text text-anchor="start" x="512" y="-477.6" font-family="Times,serif" font-size="13.00">Controllers diagram</text>
<text text-anchor="start" x="512" y="-463.6" font-family="Times,serif" font-size="13.00">Date: Oct 16 2021 &#45; 20:49</text>
<text text-anchor="start" x="512" y="-449.6" font-family="Times,serif" font-size="13.00">Migration version: 20211008171657</text>
<text text-anchor="start" x="512" y="-435.6" font-family="Times,serif" font-size="13.00">Generated by RailRoady 1.6.0</text>
<text text-anchor="start" x="512" y="-421.6" font-family="Times,serif" font-size="13.00">http://railroady.prestonlee.com</text>
</g>
<!-- ArticlesController -->
<g id="node2" class="node">
<title>ArticlesController</title>
<path fill="none" stroke="black" d="M84,-288.5C84,-288.5 204,-288.5 204,-288.5 210,-288.5 216,-294.5 216,-300.5 216,-300.5 216,-414.5 216,-414.5 216,-420.5 210,-426.5 204,-426.5 204,-426.5 84,-426.5 84,-426.5 78,-426.5 72,-420.5 72,-414.5 72,-414.5 72,-300.5 72,-300.5 72,-294.5 78,-288.5 84,-288.5"/>
<text text-anchor="middle" x="144" y="-411.3" font-family="Times,serif" font-size="14.00">ArticlesController</text>
<polyline fill="none" stroke="black" points="72,-403.5 216,-403.5 "/>
<text text-anchor="start" x="80" y="-388.3" font-family="Times,serif" font-size="14.00">create</text>
<text text-anchor="start" x="80" y="-373.3" font-family="Times,serif" font-size="14.00">new</text>
<text text-anchor="start" x="80" y="-358.3" font-family="Times,serif" font-size="14.00">show</text>
<polyline fill="none" stroke="black" points="72,-350.5 216,-350.5 "/>
<polyline fill="none" stroke="black" points="72,-326.5 216,-326.5 "/>
<text text-anchor="start" x="80" y="-311.3" font-family="Times,serif" font-size="14.00">_layout</text>
<text text-anchor="start" x="80" y="-296.3" font-family="Times,serif" font-size="14.00">article_params</text>
</g>
<!-- CategoriesController -->
<g id="node3" class="node">
<title>CategoriesController</title>
<path fill="none" stroke="black" d="M588,-18.5C588,-18.5 731,-18.5 731,-18.5 737,-18.5 743,-24.5 743,-30.5 743,-30.5 743,-99.5 743,-99.5 743,-105.5 737,-111.5 731,-111.5 731,-111.5 588,-111.5 588,-111.5 582,-111.5 576,-105.5 576,-99.5 576,-99.5 576,-30.5 576,-30.5 576,-24.5 582,-18.5 588,-18.5"/>
<text text-anchor="middle" x="659.5" y="-96.3" font-family="Times,serif" font-size="14.00">CategoriesController</text>
<polyline fill="none" stroke="black" points="576,-88.5 743,-88.5 "/>
<text text-anchor="start" x="584" y="-73.3" font-family="Times,serif" font-size="14.00">show</text>
<polyline fill="none" stroke="black" points="576,-65.5 743,-65.5 "/>
<polyline fill="none" stroke="black" points="576,-41.5 743,-41.5 "/>
<text text-anchor="start" x="584" y="-26.3" font-family="Times,serif" font-size="14.00">_layout</text>
</g>
<!-- VenuesController -->
<g id="node4" class="node">
<title>VenuesController</title>
<path fill="none" stroke="black" d="M336,-414.5C336,-414.5 452,-414.5 452,-414.5 458,-414.5 464,-420.5 464,-426.5 464,-426.5 464,-600.5 464,-600.5 464,-606.5 458,-612.5 452,-612.5 452,-612.5 336,-612.5 336,-612.5 330,-612.5 324,-606.5 324,-600.5 324,-600.5 324,-426.5 324,-426.5 324,-420.5 330,-414.5 336,-414.5"/>
<text text-anchor="middle" x="394" y="-597.3" font-family="Times,serif" font-size="14.00">VenuesController</text>
<polyline fill="none" stroke="black" points="324,-589.5 464,-589.5 "/>
<text text-anchor="start" x="332" y="-574.3" font-family="Times,serif" font-size="14.00">create</text>
<text text-anchor="start" x="332" y="-559.3" font-family="Times,serif" font-size="14.00">destroy</text>
<text text-anchor="start" x="332" y="-544.3" font-family="Times,serif" font-size="14.00">edit</text>
<text text-anchor="start" x="332" y="-529.3" font-family="Times,serif" font-size="14.00">index</text>
<text text-anchor="start" x="332" y="-514.3" font-family="Times,serif" font-size="14.00">new</text>
<text text-anchor="start" x="332" y="-499.3" font-family="Times,serif" font-size="14.00">show</text>
<text text-anchor="start" x="332" y="-484.3" font-family="Times,serif" font-size="14.00">update</text>
<polyline fill="none" stroke="black" points="324,-476.5 464,-476.5 "/>
<polyline fill="none" stroke="black" points="324,-452.5 464,-452.5 "/>
<text text-anchor="start" x="332" y="-437.3" font-family="Times,serif" font-size="14.00">_layout</text>
<text text-anchor="start" x="332" y="-422.3" font-family="Times,serif" font-size="14.00">venue_params</text>
</g>
<!-- UsersController -->
<g id="node5" class="node">
<title>UsersController</title>
<path fill="none" stroke="black" d="M174,-468.5C174,-468.5 281,-468.5 281,-468.5 287,-468.5 293,-474.5 293,-480.5 293,-480.5 293,-639.5 293,-639.5 293,-645.5 287,-651.5 281,-651.5 281,-651.5 174,-651.5 174,-651.5 168,-651.5 162,-645.5 162,-639.5 162,-639.5 162,-480.5 162,-480.5 162,-474.5 168,-468.5 174,-468.5"/>
<text text-anchor="middle" x="227.5" y="-636.3" font-family="Times,serif" font-size="14.00">UsersController</text>
<polyline fill="none" stroke="black" points="162,-628.5 293,-628.5 "/>
<text text-anchor="start" x="170" y="-613.3" font-family="Times,serif" font-size="14.00">create</text>
<text text-anchor="start" x="170" y="-598.3" font-family="Times,serif" font-size="14.00">destroy</text>
<text text-anchor="start" x="170" y="-583.3" font-family="Times,serif" font-size="14.00">edit</text>
<text text-anchor="start" x="170" y="-568.3" font-family="Times,serif" font-size="14.00">index</text>
<text text-anchor="start" x="170" y="-553.3" font-family="Times,serif" font-size="14.00">new</text>
<text text-anchor="start" x="170" y="-538.3" font-family="Times,serif" font-size="14.00">update</text>
<polyline fill="none" stroke="black" points="162,-530.5 293,-530.5 "/>
<polyline fill="none" stroke="black" points="162,-506.5 293,-506.5 "/>
<text text-anchor="start" x="170" y="-491.3" font-family="Times,serif" font-size="14.00">_layout</text>
<text text-anchor="start" x="170" y="-476.3" font-family="Times,serif" font-size="14.00">user_params</text>
</g>
<!-- ApplicationController -->
<g id="node6" class="node">
<title>ApplicationController</title>
<path fill="none" stroke="black" d="M678,-144.5C678,-144.5 828,-144.5 828,-144.5 834,-144.5 840,-150.5 840,-156.5 840,-156.5 840,-225.5 840,-225.5 840,-231.5 834,-237.5 828,-237.5 828,-237.5 678,-237.5 678,-237.5 672,-237.5 666,-231.5 666,-225.5 666,-225.5 666,-156.5 666,-156.5 666,-150.5 672,-144.5 678,-144.5"/>
<text text-anchor="middle" x="753" y="-222.3" font-family="Times,serif" font-size="14.00">ApplicationController</text>
<polyline fill="none" stroke="black" points="666,-214.5 840,-214.5 "/>
<text text-anchor="start" x="674" y="-199.3" font-family="Times,serif" font-size="14.00">after_sign_in_path_for</text>
<polyline fill="none" stroke="black" points="666,-191.5 840,-191.5 "/>
<polyline fill="none" stroke="black" points="666,-167.5 840,-167.5 "/>
<text text-anchor="start" x="674" y="-152.3" font-family="Times,serif" font-size="14.00">_layout</text>
</g>
<!-- VenueBookingsController -->
<g id="node7" class="node">
<title>VenueBookingsController</title>
<path fill="none" stroke="black" d="M624,-522.5C624,-522.5 798,-522.5 798,-522.5 804,-522.5 810,-528.5 810,-534.5 810,-534.5 810,-648.5 810,-648.5 810,-654.5 804,-660.5 798,-660.5 798,-660.5 624,-660.5 624,-660.5 618,-660.5 612,-654.5 612,-648.5 612,-648.5 612,-534.5 612,-534.5 612,-528.5 618,-522.5 624,-522.5"/>
<text text-anchor="middle" x="711" y="-645.3" font-family="Times,serif" font-size="14.00">VenueBookingsController</text>
<polyline fill="none" stroke="black" points="612,-637.5 810,-637.5 "/>
<text text-anchor="start" x="620" y="-622.3" font-family="Times,serif" font-size="14.00">create</text>
<text text-anchor="start" x="620" y="-607.3" font-family="Times,serif" font-size="14.00">index</text>
<text text-anchor="start" x="620" y="-592.3" font-family="Times,serif" font-size="14.00">new</text>
<polyline fill="none" stroke="black" points="612,-584.5 810,-584.5 "/>
<polyline fill="none" stroke="black" points="612,-560.5 810,-560.5 "/>
<text text-anchor="start" x="620" y="-545.3" font-family="Times,serif" font-size="14.00">_layout</text>
<text text-anchor="start" x="620" y="-530.3" font-family="Times,serif" font-size="14.00">venue_booking_params</text>
</g>
<!-- CommentsController -->
<g id="node8" class="node">
<title>CommentsController</title>
<path fill="none" stroke="black" d="M102,-0.5C102,-0.5 244,-0.5 244,-0.5 250,-0.5 256,-6.5 256,-12.5 256,-12.5 256,-111.5 256,-111.5 256,-117.5 250,-123.5 244,-123.5 244,-123.5 102,-123.5 102,-123.5 96,-123.5 90,-117.5 90,-111.5 90,-111.5 90,-12.5 90,-12.5 90,-6.5 96,-0.5 102,-0.5"/>
<text text-anchor="middle" x="173" y="-108.3" font-family="Times,serif" font-size="14.00">CommentsController</text>
<polyline fill="none" stroke="black" points="90,-100.5 256,-100.5 "/>
<text text-anchor="start" x="98" y="-85.3" font-family="Times,serif" font-size="14.00">create</text>
<text text-anchor="start" x="98" y="-70.3" font-family="Times,serif" font-size="14.00">destroy</text>
<polyline fill="none" stroke="black" points="90,-62.5 256,-62.5 "/>
<polyline fill="none" stroke="black" points="90,-38.5 256,-38.5 "/>
<text text-anchor="start" x="98" y="-23.3" font-family="Times,serif" font-size="14.00">_layout</text>
<text text-anchor="start" x="98" y="-8.3" font-family="Times,serif" font-size="14.00">comment_params</text>
</g>
<!-- LikesController -->
<g id="node9" class="node">
<title>LikesController</title>
<path fill="none" stroke="black" d="M12,-630.5C12,-630.5 115,-630.5 115,-630.5 121,-630.5 127,-636.5 127,-642.5 127,-642.5 127,-741.5 127,-741.5 127,-747.5 121,-753.5 115,-753.5 115,-753.5 12,-753.5 12,-753.5 6,-753.5 0,-747.5 0,-741.5 0,-741.5 0,-642.5 0,-642.5 0,-636.5 6,-630.5 12,-630.5"/>
<text text-anchor="middle" x="63.5" y="-738.3" font-family="Times,serif" font-size="14.00">LikesController</text>
<polyline fill="none" stroke="black" points="0,-730.5 127,-730.5 "/>
<text text-anchor="start" x="8" y="-715.3" font-family="Times,serif" font-size="14.00">already_liked?</text>
<text text-anchor="start" x="8" y="-700.3" font-family="Times,serif" font-size="14.00">create</text>
<polyline fill="none" stroke="black" points="0,-692.5 127,-692.5 "/>
<polyline fill="none" stroke="black" points="0,-668.5 127,-668.5 "/>
<text text-anchor="start" x="8" y="-653.3" font-family="Times,serif" font-size="14.00">_layout</text>
<text text-anchor="start" x="8" y="-638.3" font-family="Times,serif" font-size="14.00">find_event</text>
</g>
<!-- RegistrationsController -->
<g id="node10" class="node">
<title>RegistrationsController</title>
<path fill="none" stroke="black" d="M372,-0.5C372,-0.5 533,-0.5 533,-0.5 539,-0.5 545,-6.5 545,-12.5 545,-12.5 545,-97.5 545,-97.5 545,-103.5 539,-109.5 533,-109.5 533,-109.5 372,-109.5 372,-109.5 366,-109.5 360,-103.5 360,-97.5 360,-97.5 360,-12.5 360,-12.5 360,-6.5 366,-0.5 372,-0.5"/>
<text text-anchor="middle" x="452.5" y="-94.3" font-family="Times,serif" font-size="14.00">RegistrationsController</text>
<polyline fill="none" stroke="black" points="360,-86.5 545,-86.5 "/>
<polyline fill="none" stroke="black" points="360,-62.5 545,-62.5 "/>
<polyline fill="none" stroke="black" points="360,-38.5 545,-38.5 "/>
<text text-anchor="start" x="368" y="-23.3" font-family="Times,serif" font-size="14.00">_layout</text>
<text text-anchor="start" x="368" y="-8.3" font-family="Times,serif" font-size="14.00">sign_up_params</text>
</g>
<!-- EventBookingsController -->
<g id="node11" class="node">
<title>EventBookingsController</title>
<path fill="none" stroke="black" d="M264,-162.5C264,-162.5 437,-162.5 437,-162.5 443,-162.5 449,-168.5 449,-174.5 449,-174.5 449,-363.5 449,-363.5 449,-369.5 443,-375.5 437,-375.5 437,-375.5 264,-375.5 264,-375.5 258,-375.5 252,-369.5 252,-363.5 252,-363.5 252,-174.5 252,-174.5 252,-168.5 258,-162.5 264,-162.5"/>
<text text-anchor="middle" x="350.5" y="-360.3" font-family="Times,serif" font-size="14.00">EventBookingsController</text>
<polyline fill="none" stroke="black" points="252,-352.5 449,-352.5 "/>
<text text-anchor="start" x="260" y="-337.3" font-family="Times,serif" font-size="14.00">create</text>
<text text-anchor="start" x="260" y="-322.3" font-family="Times,serif" font-size="14.00">destroy</text>
<text text-anchor="start" x="260" y="-307.3" font-family="Times,serif" font-size="14.00">edit</text>
<text text-anchor="start" x="260" y="-292.3" font-family="Times,serif" font-size="14.00">index</text>
<text text-anchor="start" x="260" y="-277.3" font-family="Times,serif" font-size="14.00">new</text>
<text text-anchor="start" x="260" y="-262.3" font-family="Times,serif" font-size="14.00">show</text>
<text text-anchor="start" x="260" y="-247.3" font-family="Times,serif" font-size="14.00">update</text>
<polyline fill="none" stroke="black" points="252,-239.5 449,-239.5 "/>
<polyline fill="none" stroke="black" points="252,-215.5 449,-215.5 "/>
<text text-anchor="start" x="260" y="-200.3" font-family="Times,serif" font-size="14.00">_layout</text>
<text text-anchor="start" x="260" y="-185.3" font-family="Times,serif" font-size="14.00">event_booking_params</text>
<text text-anchor="start" x="260" y="-170.3" font-family="Times,serif" font-size="14.00">set_event_booking</text>
</g>
<!-- EventsController -->
<g id="node12" class="node">
<title>EventsController</title>
<path fill="none" stroke="black" d="M498,-144.5C498,-144.5 616,-144.5 616,-144.5 622,-144.5 628,-150.5 628,-156.5 628,-156.5 628,-360.5 628,-360.5 628,-366.5 622,-372.5 616,-372.5 616,-372.5 498,-372.5 498,-372.5 492,-372.5 486,-366.5 486,-360.5 486,-360.5 486,-156.5 486,-156.5 486,-150.5 492,-144.5 498,-144.5"/>
<text text-anchor="middle" x="557" y="-357.3" font-family="Times,serif" font-size="14.00">EventsController</text>
<polyline fill="none" stroke="black" points="486,-349.5 628,-349.5 "/>
<text text-anchor="start" x="494" y="-334.3" font-family="Times,serif" font-size="14.00">create</text>
<text text-anchor="start" x="494" y="-319.3" font-family="Times,serif" font-size="14.00">create_comments</text>
<text text-anchor="start" x="494" y="-304.3" font-family="Times,serif" font-size="14.00">destroy</text>
<text text-anchor="start" x="494" y="-289.3" font-family="Times,serif" font-size="14.00">edit</text>
<text text-anchor="start" x="494" y="-274.3" font-family="Times,serif" font-size="14.00">index</text>
<text text-anchor="start" x="494" y="-259.3" font-family="Times,serif" font-size="14.00">my_events</text>
<text text-anchor="start" x="494" y="-244.3" font-family="Times,serif" font-size="14.00">new</text>
<text text-anchor="start" x="494" y="-229.3" font-family="Times,serif" font-size="14.00">show</text>
<text text-anchor="start" x="494" y="-214.3" font-family="Times,serif" font-size="14.00">update</text>
<polyline fill="none" stroke="black" points="486,-206.5 628,-206.5 "/>
<polyline fill="none" stroke="black" points="486,-182.5 628,-182.5 "/>
<text text-anchor="start" x="494" y="-167.3" font-family="Times,serif" font-size="14.00">_layout</text>
<text text-anchor="start" x="494" y="-152.3" font-family="Times,serif" font-size="14.00">event_params</text>
</g>
</g>
</svg>
