<?xml version="1.0" encoding="UTF-8" standalone="no"?>
<!DOCTYPE svg PUBLIC "-//W3C//DTD SVG 1.1//EN"
 "http://www.w3.org/Graphics/SVG/1.1/DTD/svg11.dtd">
<!-- Generated by graphviz version 2.43.0 (0)
 -->
<!-- Title: models_diagram Pages: 1 -->
<svg width="808pt" height="446pt"
 viewBox="0.00 0.00 807.85 446.00" xmlns="http://www.w3.org/2000/svg" xmlns:xlink="http://www.w3.org/1999/xlink">
<g id="graph0" class="graph" transform="scale(1 1) rotate(0) translate(4 442)">
<title>models_diagram</title>
<polygon fill="transparent" stroke="transparent" points="-4,4 -4,-442 803.85,-442 803.85,4 -4,4"/>
<!-- _diagram_info -->
<g id="node1" class="node">
<title>_diagram_info</title>
<text text-anchor="start" x="126.75" y="-423.6" font-family="Times,serif" font-size="13.00">Models diagram</text>
<text text-anchor="start" x="126.75" y="-409.6" font-family="Times,serif" font-size="13.00">Date: Oct 16 2021 &#45; 20:49</text>
<text text-anchor="start" x="126.75" y="-395.6" font-family="Times,serif" font-size="13.00">Migration version: 20211008171657</text>
<text text-anchor="start" x="126.75" y="-381.6" font-family="Times,serif" font-size="13.00">Generated by RailRoady 1.6.0</text>
<text text-anchor="start" x="126.75" y="-367.6" font-family="Times,serif" font-size="13.00">http://railroady.prestonlee.com</text>
</g>
<!-- Venue -->
<g id="node2" class="node">
<title>Venue</title>
<ellipse fill="none" stroke="black" cx="434.25" cy="-399" rx="38.99" ry="18"/>
<text text-anchor="middle" x="434.25" y="-395.3" font-family="Times,serif" font-size="14.00">Venue</text>
</g>
<!-- VenueBooking -->
<g id="node5" class="node">
<title>VenueBooking</title>
<ellipse fill="none" stroke="black" cx="372.25" cy="-306" rx="76.89" ry="18"/>
<text text-anchor="middle" x="372.25" y="-302.3" font-family="Times,serif" font-size="14.00">VenueBooking</text>
</g>
<!-- Venue&#45;&gt;VenueBooking -->
<g id="edge1" class="edge">
<title>Venue&#45;&gt;VenueBooking</title>
<path fill="none" stroke="#0f68b6" d="M417.29,-373.11C408.67,-360.45 398.21,-345.1 389.54,-332.38"/>
<polygon fill="#0f68b6" stroke="#0f68b6" points="417.54,-373.47 419.45,-384.26 420.35,-377.6 423.17,-381.73 423.17,-381.73 423.17,-381.73 420.35,-377.6 426.89,-379.2 417.54,-373.47 417.54,-373.47"/>
<polygon fill="#0f68b6" stroke="#0f68b6" points="389.5,-332.32 387.59,-321.52 386.69,-328.19 383.87,-324.05 383.87,-324.05 383.87,-324.05 386.69,-328.19 380.15,-326.59 389.5,-332.32 389.5,-332.32"/>
</g>
<!-- City -->
<g id="node7" class="node">
<title>City</title>
<ellipse fill="none" stroke="black" cx="497.25" cy="-306" rx="29.8" ry="18"/>
<text text-anchor="middle" x="497.25" y="-302.3" font-family="Times,serif" font-size="14.00">City</text>
</g>
<!-- Venue&#45;&gt;City -->
<g id="edge6" class="edge">
<title>Venue&#45;&gt;City</title>
<path fill="none" stroke="#7e5082" d="M451.34,-373.32C460.38,-360.26 471.44,-344.28 480.45,-331.28"/>
<polygon fill="#7e5082" stroke="#7e5082" points="451.21,-373.51 441.82,-379.17 448.36,-377.62 445.52,-381.73 445.52,-381.73 445.52,-381.73 448.36,-377.62 449.21,-384.29 451.21,-373.51 451.21,-373.51"/>
<polygon fill="#7e5082" stroke="#7e5082" points="480.61,-331.05 490,-325.38 483.45,-326.93 486.3,-322.82 486.3,-322.82 486.3,-322.82 483.45,-326.93 482.6,-320.26 480.61,-331.05 480.61,-331.05"/>
</g>
<!-- Event -->
<g id="node8" class="node">
<title>Event</title>
<ellipse fill="none" stroke="black" cx="367.25" cy="-234" rx="38.19" ry="18"/>
<text text-anchor="middle" x="367.25" y="-230.3" font-family="Times,serif" font-size="14.00">Event</text>
</g>
<!-- Venue&#45;&gt;Event -->
<g id="edge2" class="edge">
<title>Venue&#45;&gt;Event</title>
<path fill="none" stroke="#a6bc90" d="M410.07,-375.87C403.06,-370.18 395.15,-364.43 387.25,-360 345.69,-336.69 313.72,-362.95 286.25,-324 277.03,-310.92 278.64,-302.07 286.25,-288 295.34,-271.19 312.33,-258.86 328.41,-250.35"/>
<polygon fill="#a6bc90" stroke="#a6bc90" points="410.21,-375.99 414.95,-385.88 414.03,-379.21 417.85,-382.44 417.85,-382.44 417.85,-382.44 414.03,-379.21 420.75,-379 410.21,-375.99 410.21,-375.99"/>
<polygon fill="#a6bc90" stroke="#a6bc90" points="328.74,-250.18 339.7,-249.8 333.22,-247.98 337.71,-245.77 337.71,-245.77 337.71,-245.77 333.22,-247.98 335.72,-241.73 328.74,-250.18 328.74,-250.18"/>
</g>
<!-- Locality -->
<g id="node10" class="node">
<title>Locality</title>
<ellipse fill="none" stroke="black" cx="555.25" cy="-162" rx="47.39" ry="18"/>
<text text-anchor="middle" x="555.25" y="-158.3" font-family="Times,serif" font-size="14.00">Locality</text>
</g>
<!-- Venue&#45;&gt;Locality -->
<g id="edge4" class="edge">
<title>Venue&#45;&gt;Locality</title>
<path fill="none" stroke="#291610" d="M460.52,-376.58C467.5,-371.06 475.09,-365.21 482.25,-360 505.58,-343.03 521.17,-348.59 536.25,-324 561.61,-282.65 561.44,-224 558.62,-190.09"/>
<polygon fill="#291610" stroke="#291610" points="460.49,-376.6 449.86,-379.33 456.58,-379.72 452.67,-382.84 452.67,-382.84 452.67,-382.84 456.58,-379.72 455.48,-386.36 460.49,-376.6 460.49,-376.6"/>
<polygon fill="#291610" stroke="#291610" points="558.6,-189.96 562.11,-179.57 558.12,-184.98 557.63,-180 557.63,-180 557.63,-180 558.12,-184.98 553.16,-180.44 558.6,-189.96 558.6,-189.96"/>
</g>
<!-- User -->
<g id="node12" class="node">
<title>User</title>
<ellipse fill="none" stroke="black" cx="198.25" cy="-90" rx="33.29" ry="18"/>
<text text-anchor="middle" x="198.25" y="-86.3" font-family="Times,serif" font-size="14.00">User</text>
</g>
<!-- Venue&#45;&gt;User -->
<g id="edge5" class="edge">
<title>Venue&#45;&gt;User</title>
<path fill="none" stroke="#66784e" d="M410.16,-375.72C403.14,-370.03 395.21,-364.31 387.25,-360 341.66,-335.28 323.87,-344.54 276.25,-324 153.89,-271.21 81.19,-294.65 13.25,-180 -20.31,-123.36 90.88,-102.12 155.4,-94.68"/>
<polygon fill="#66784e" stroke="#66784e" points="410.29,-375.84 415.02,-385.74 414.11,-379.07 417.92,-382.3 417.92,-382.3 417.92,-382.3 414.11,-379.07 420.83,-378.87 410.29,-375.84 410.29,-375.84"/>
<polygon fill="#66784e" stroke="#66784e" points="155.77,-94.64 166.2,-98.04 160.74,-94.11 165.71,-93.57 165.71,-93.57 165.71,-93.57 160.74,-94.11 165.23,-89.09 155.77,-94.64 155.77,-94.64"/>
</g>
<!-- Comment -->
<g id="node14" class="node">
<title>Comment</title>
<ellipse fill="none" stroke="black" cx="480.25" cy="-18" rx="55.79" ry="18"/>
<text text-anchor="middle" x="480.25" y="-14.3" font-family="Times,serif" font-size="14.00">Comment</text>
</g>
<!-- Venue&#45;&gt;Comment -->
<g id="edge3" class="edge">
<title>Venue&#45;&gt;Comment</title>
<path fill="none" stroke="#431dbe" d="M459.68,-376.16C466.76,-370.56 474.61,-364.78 482.25,-360 555.27,-314.37 630.25,-321.1 630.25,-235 630.25,-235 630.25,-235 630.25,-161 630.25,-101.24 566.69,-59.11 522.32,-36.98"/>
<polygon fill="#431dbe" stroke="#431dbe" points="459.55,-376.27 448.95,-379.08 455.67,-379.42 451.79,-382.57 451.79,-382.57 451.79,-382.57 455.67,-379.42 454.62,-386.07 459.55,-376.27 459.55,-376.27"/>
<polygon fill="#431dbe" stroke="#431dbe" points="522.17,-36.91 515.13,-28.51 517.67,-34.74 513.17,-32.56 513.17,-32.56 513.17,-32.56 517.67,-34.74 511.21,-36.62 522.17,-36.91 522.17,-36.91"/>
</g>
<!-- Ability -->
<g id="node3" class="node">
<title>Ability</title>
<polygon fill="none" stroke="black" points="553.75,-417 490.75,-417 490.75,-381 553.75,-381 553.75,-417"/>
<text text-anchor="middle" x="522.25" y="-395.3" font-family="Times,serif" font-size="14.00">Ability</text>
</g>
<!-- AdminUser -->
<g id="node4" class="node">
<title>AdminUser</title>
<ellipse fill="none" stroke="black" cx="635.25" cy="-399" rx="63.09" ry="18"/>
<text text-anchor="middle" x="635.25" y="-395.3" font-family="Times,serif" font-size="14.00">AdminUser</text>
</g>
<!-- VenueBooking&#45;&gt;Event -->
<g id="edge7" class="edge">
<title>VenueBooking&#45;&gt;Event</title>
<path fill="none" stroke="#4a127c" d="M370.3,-277.67C369.93,-272.55 369.55,-267.21 369.19,-262.1"/>
<polygon fill="#4a127c" stroke="#4a127c" points="370.3,-277.72 366.53,-288.02 370.66,-282.71 371.02,-287.7 371.02,-287.7 371.02,-287.7 370.66,-282.71 375.5,-287.38 370.3,-277.72 370.3,-277.72"/>
<polygon fill="#4a127c" stroke="#4a127c" points="369.19,-262.08 372.96,-251.78 368.83,-257.09 368.47,-252.1 368.47,-252.1 368.47,-252.1 368.83,-257.09 363.99,-252.42 369.19,-262.08 369.19,-262.08"/>
</g>
<!-- Role -->
<g id="node6" class="node">
<title>Role</title>
<ellipse fill="none" stroke="black" cx="259.25" cy="-162" rx="31.4" ry="18"/>
<text text-anchor="middle" x="259.25" y="-158.3" font-family="Times,serif" font-size="14.00">Role</text>
</g>
<!-- Role&#45;&gt;User -->
<g id="edge9" class="edge">
<title>Role&#45;&gt;User</title>
<path fill="none" stroke="#4d4fd7" d="M238.9,-137.64C232.34,-130.12 225.07,-121.78 218.52,-114.25"/>
<polygon fill="#4d4fd7" stroke="#4d4fd7" points="239.14,-137.93 242.32,-148.42 242.43,-141.7 245.71,-145.46 245.71,-145.46 245.71,-145.46 242.43,-141.7 249.11,-142.51 239.14,-137.93 239.14,-137.93"/>
<polygon fill="#4d4fd7" stroke="#4d4fd7" points="218.32,-114.03 215.14,-103.54 215.04,-110.26 211.75,-106.49 211.75,-106.49 211.75,-106.49 215.04,-110.26 208.36,-109.45 218.32,-114.03 218.32,-114.03"/>
</g>
<!-- Permission -->
<g id="node16" class="node">
<title>Permission</title>
<ellipse fill="none" stroke="black" cx="228.25" cy="-18" rx="61.99" ry="18"/>
<text text-anchor="middle" x="228.25" y="-14.3" font-family="Times,serif" font-size="14.00">Permission</text>
</g>
<!-- Role&#45;&gt;Permission -->
<g id="edge8" class="edge">
<title>Role&#45;&gt;Permission</title>
<path fill="none" stroke="#856a98" d="M253.53,-133.78C249.8,-116.15 244.8,-92.7 240.25,-72 238.4,-63.58 236.34,-54.41 234.46,-46.11"/>
<polygon fill="#856a98" stroke="#856a98" points="253.61,-134.14 251.27,-144.85 254.64,-139.03 255.67,-143.92 255.67,-143.92 255.67,-143.92 254.64,-139.03 260.07,-143 253.61,-134.14 253.61,-134.14"/>
<polygon fill="#856a98" stroke="#856a98" points="234.42,-45.92 236.58,-35.18 233.31,-41.05 232.2,-36.17 232.2,-36.17 232.2,-36.17 233.31,-41.05 227.81,-37.17 234.42,-45.92 234.42,-45.92"/>
</g>
<!-- City&#45;&gt;Event -->
<g id="edge11" class="edge">
<title>City&#45;&gt;Event</title>
<path fill="none" stroke="#ad497a" d="M466.79,-288.6C446.86,-277.86 420.81,-263.84 400.36,-252.83"/>
<polygon fill="#ad497a" stroke="#ad497a" points="466.98,-288.7 473.65,-297.4 471.38,-291.07 475.79,-293.44 475.79,-293.44 475.79,-293.44 471.38,-291.07 477.92,-289.48 466.98,-288.7 466.98,-288.7"/>
<polygon fill="#ad497a" stroke="#ad497a" points="400.21,-252.75 393.54,-244.04 395.81,-250.38 391.4,-248 391.4,-248 391.4,-248 395.81,-250.38 389.27,-251.97 400.21,-252.75 400.21,-252.75"/>
</g>
<!-- City&#45;&gt;Locality -->
<g id="edge10" class="edge">
<title>City&#45;&gt;Locality</title>
<path fill="none" stroke="#6d17f7" d="M507.87,-278.99C518.28,-253.53 534.04,-214.92 544.49,-189.34"/>
<polygon fill="#6d17f7" stroke="#6d17f7" points="507.8,-279.18 499.85,-286.73 505.91,-283.8 504.02,-288.43 504.02,-288.43 504.02,-288.43 505.91,-283.8 508.18,-290.13 507.8,-279.18 507.8,-279.18"/>
<polygon fill="#6d17f7" stroke="#6d17f7" points="544.57,-189.16 552.51,-181.6 546.46,-184.53 548.35,-179.9 548.35,-179.9 548.35,-179.9 546.46,-184.53 544.18,-178.2 544.57,-189.16 544.57,-189.16"/>
</g>
<!-- Category -->
<g id="node9" class="node">
<title>Category</title>
<ellipse fill="none" stroke="black" cx="361.25" cy="-162" rx="53.09" ry="18"/>
<text text-anchor="middle" x="361.25" y="-158.3" font-family="Times,serif" font-size="14.00">Category</text>
</g>
<!-- Event&#45;&gt;Category -->
<g id="edge16" class="edge">
<title>Event&#45;&gt;Category</title>
<path fill="none" stroke="#d8b280" d="M364.91,-205.67C364.47,-200.55 364.01,-195.21 363.58,-190.1"/>
<polygon fill="#d8b280" stroke="#d8b280" points="364.91,-205.73 361.29,-216.08 365.34,-210.71 365.77,-215.7 365.77,-215.7 365.77,-215.7 365.34,-210.71 370.25,-215.31 364.91,-205.73 364.91,-205.73"/>
<polygon fill="#d8b280" stroke="#d8b280" points="363.57,-190.07 367.2,-179.72 363.15,-185.09 362.72,-180.1 362.72,-180.1 362.72,-180.1 363.15,-185.09 358.23,-180.49 363.57,-190.07 363.57,-190.07"/>
</g>
<!-- Event&#45;&gt;Locality -->
<g id="edge17" class="edge">
<title>Event&#45;&gt;Locality</title>
<path fill="none" stroke="#f30527" d="M406.34,-218.44C437.53,-206.83 481.13,-190.6 513.09,-178.7"/>
<polygon fill="#f30527" stroke="#f30527" points="406,-218.57 395.06,-217.85 401.31,-220.32 396.63,-222.06 396.63,-222.06 396.63,-222.06 401.31,-220.32 398.2,-226.28 406,-218.57 406,-218.57"/>
<polygon fill="#f30527" stroke="#f30527" points="513.24,-178.64 524.18,-179.37 517.93,-176.9 522.61,-175.15 522.61,-175.15 522.61,-175.15 517.93,-176.9 521.04,-170.94 513.24,-178.64 513.24,-178.64"/>
</g>
<!-- EventBooking -->
<g id="node11" class="node">
<title>EventBooking</title>
<ellipse fill="none" stroke="black" cx="97.25" cy="-162" rx="75.29" ry="18"/>
<text text-anchor="middle" x="97.25" y="-158.3" font-family="Times,serif" font-size="14.00">EventBooking</text>
</g>
<!-- Event&#45;&gt;EventBooking -->
<g id="edge14" class="edge">
<title>Event&#45;&gt;EventBooking</title>
<path fill="none" stroke="#229d46" d="M324.56,-221.93C279.14,-210.16 206.97,-191.45 156.16,-178.27"/>
<polygon fill="#229d46" stroke="#229d46" points="324.73,-221.98 333.29,-228.84 329.57,-223.23 334.41,-224.49 334.41,-224.49 334.41,-224.49 329.57,-223.23 335.54,-220.13 324.73,-221.98 324.73,-221.98"/>
<polygon fill="#229d46" stroke="#229d46" points="155.97,-178.22 147.42,-171.36 151.13,-176.97 146.29,-175.71 146.29,-175.71 146.29,-175.71 151.13,-176.97 145.17,-180.07 155.97,-178.22 155.97,-178.22"/>
</g>
<!-- Event&#45;&gt;User -->
<g id="edge18" class="edge">
<title>Event&#45;&gt;User</title>
<path fill="none" stroke="#1a2aa6" d="M319.53,-227.81C286.78,-221.73 244.77,-208.55 219.25,-180 204.26,-163.22 199.43,-137.74 198.11,-118.33"/>
<polygon fill="#1a2aa6" stroke="#1a2aa6" points="319.95,-227.88 329.06,-233.98 324.88,-228.71 329.81,-229.54 329.81,-229.54 329.81,-229.54 324.88,-228.71 330.56,-225.1 319.95,-227.88 319.95,-227.88"/>
<polygon fill="#1a2aa6" stroke="#1a2aa6" points="198.1,-118.26 202.19,-108.08 197.9,-113.27 197.69,-108.27 197.69,-108.27 197.69,-108.27 197.9,-113.27 193.19,-108.46 198.1,-118.26 198.1,-118.26"/>
</g>
<!-- EventCategory -->
<g id="node13" class="node">
<title>EventCategory</title>
<ellipse fill="none" stroke="black" cx="370.25" cy="-90" rx="80.69" ry="18"/>
<text text-anchor="middle" x="370.25" y="-86.3" font-family="Times,serif" font-size="14.00">EventCategory</text>
</g>
<!-- Event&#45;&gt;EventCategory -->
<g id="edge15" class="edge">
<title>Event&#45;&gt;EventCategory</title>
<path fill="none" stroke="#e05095" d="M396.86,-212.96C407.24,-204.19 417.69,-192.93 423.25,-180 429.58,-165.3 429.37,-158.78 423.25,-144 418.55,-132.66 410.12,-122.47 401.34,-114.14"/>
<polygon fill="#e05095" stroke="#e05095" points="396.86,-212.96 386.23,-215.64 392.94,-216.06 389.02,-219.17 389.02,-219.17 389.02,-219.17 392.94,-216.06 391.82,-222.69 396.86,-212.96 396.86,-212.96"/>
<polygon fill="#e05095" stroke="#e05095" points="401.11,-113.93 396.6,-103.94 397.36,-110.62 393.62,-107.31 393.62,-107.31 393.62,-107.31 397.36,-110.62 390.64,-110.68 401.11,-113.93 401.11,-113.93"/>
</g>
<!-- Event&#45;&gt;Comment -->
<g id="edge12" class="edge">
<title>Event&#45;&gt;Comment</title>
<path fill="none" stroke="#05beb2" d="M400.98,-214.78C414.6,-205.91 429.4,-194.09 439.25,-180 467.73,-139.25 476.45,-80.4 479.1,-46.29"/>
<polygon fill="#05beb2" stroke="#05beb2" points="400.76,-214.92 389.89,-216.36 396.51,-217.55 392.26,-220.18 392.26,-220.18 392.26,-220.18 396.51,-217.55 394.63,-224.01 400.76,-214.92 400.76,-214.92"/>
<polygon fill="#05beb2" stroke="#05beb2" points="479.11,-46.11 484.26,-36.43 479.44,-41.12 479.77,-36.13 479.77,-36.13 479.77,-36.13 479.44,-41.12 475.28,-35.84 479.11,-46.11 479.11,-46.11"/>
</g>
<!-- Like -->
<g id="node15" class="node">
<title>Like</title>
<ellipse fill="none" stroke="black" cx="71.25" cy="-18" rx="30.59" ry="18"/>
<text text-anchor="middle" x="71.25" y="-14.3" font-family="Times,serif" font-size="14.00">Like</text>
</g>
<!-- Event&#45;&gt;Like -->
<g id="edge13" class="edge">
<title>Event&#45;&gt;Like</title>
<path fill="none" stroke="#5fba8f" d="M318.51,-233.19C230.85,-232.37 52.08,-225.07 13.25,-180 -21.78,-139.33 21.53,-75.86 50.05,-42.04"/>
<polygon fill="#5fba8f" stroke="#5fba8f" points="318.73,-233.19 328.7,-237.76 323.73,-233.22 328.73,-233.26 328.73,-233.26 328.73,-233.26 323.73,-233.22 328.76,-228.76 318.73,-233.19 318.73,-233.19"/>
<polygon fill="#5fba8f" stroke="#5fba8f" points="50.37,-41.67 60.32,-37.06 53.65,-37.89 56.92,-34.12 56.92,-34.12 56.92,-34.12 53.65,-37.89 53.52,-31.17 50.37,-41.67 50.37,-41.67"/>
</g>
<!-- Category&#45;&gt;EventCategory -->
<g id="edge19" class="edge">
<title>Category&#45;&gt;EventCategory</title>
<path fill="none" stroke="#1d5576" d="M364.77,-133.67C365.42,-128.55 366.11,-123.21 366.77,-118.1"/>
<polygon fill="#1d5576" stroke="#1d5576" points="364.75,-133.78 359.01,-143.12 364.11,-138.74 363.48,-143.7 363.48,-143.7 363.48,-143.7 364.11,-138.74 367.94,-144.27 364.75,-133.78 364.75,-133.78"/>
<polygon fill="#1d5576" stroke="#1d5576" points="366.78,-118.02 372.52,-108.68 367.42,-113.06 368.05,-108.1 368.05,-108.1 368.05,-108.1 367.42,-113.06 363.59,-107.53 366.78,-118.02 366.78,-118.02"/>
</g>
<!-- EventBooking&#45;&gt;User -->
<g id="edge20" class="edge">
<title>EventBooking&#45;&gt;User</title>
<path fill="none" stroke="#56e004" d="M129.33,-138.77C142.51,-129.64 157.62,-119.16 170.33,-110.35"/>
<polygon fill="#56e004" stroke="#56e004" points="128.9,-139.07 118.11,-141.07 124.79,-141.92 120.68,-144.76 120.68,-144.76 120.68,-144.76 124.79,-141.92 123.24,-148.46 128.9,-139.07 128.9,-139.07"/>
<polygon fill="#56e004" stroke="#56e004" points="170.47,-110.26 181.25,-108.26 174.58,-107.41 178.69,-104.56 178.69,-104.56 178.69,-104.56 174.58,-107.41 176.12,-100.86 170.47,-110.26 170.47,-110.26"/>
</g>
<!-- User&#45;&gt;Comment -->
<g id="edge21" class="edge">
<title>User&#45;&gt;Comment</title>
<path fill="none" stroke="#a740d6" d="M237.86,-79.17C287.39,-66.87 372.33,-45.79 427.38,-32.13"/>
<polygon fill="#a740d6" stroke="#a740d6" points="237.6,-79.23 226.81,-77.27 232.75,-80.44 227.9,-81.64 227.9,-81.64 227.9,-81.64 232.75,-80.44 228.98,-86.01 237.6,-79.23 237.6,-79.23"/>
<polygon fill="#a740d6" stroke="#a740d6" points="427.58,-32.07 438.37,-34.03 432.44,-30.87 437.29,-29.66 437.29,-29.66 437.29,-29.66 432.44,-30.87 436.21,-25.3 427.58,-32.07 427.58,-32.07"/>
</g>
<!-- User&#45;&gt;Like -->
<g id="edge22" class="edge">
<title>User&#45;&gt;Like</title>
<path fill="none" stroke="#c9f1a4" d="M166.83,-71.68C147.01,-60.76 121.54,-46.72 101.88,-35.88"/>
<polygon fill="#c9f1a4" stroke="#c9f1a4" points="167.08,-71.82 173.67,-80.59 171.46,-74.23 175.84,-76.65 175.84,-76.65 175.84,-76.65 171.46,-74.23 178.01,-72.71 167.08,-71.82 167.08,-71.82"/>
<polygon fill="#c9f1a4" stroke="#c9f1a4" points="101.77,-35.82 95.19,-27.06 97.4,-33.41 93.02,-31 93.02,-31 93.02,-31 97.4,-33.41 90.84,-34.94 101.77,-35.82 101.77,-35.82"/>
</g>
<!-- User&#45;&gt;Permission -->
<g id="edge23" class="edge">
<title>User&#45;&gt;Permission</title>
<path fill="none" stroke="#5be3ef" d="M209.37,-63.06C211.86,-57.26 214.49,-51.1 216.98,-45.29"/>
<polygon fill="#5be3ef" stroke="#5be3ef" points="209.3,-63.22 201.23,-70.64 207.33,-67.82 205.36,-72.41 205.36,-72.41 205.36,-72.41 207.33,-67.82 209.5,-74.18 209.3,-63.22 209.3,-63.22"/>
<polygon fill="#5be3ef" stroke="#5be3ef" points="217.05,-45.15 225.12,-37.73 219.02,-40.55 220.98,-35.96 220.98,-35.96 220.98,-35.96 219.02,-40.55 216.85,-34.18 217.05,-45.15 217.05,-45.15"/>
</g>
<!-- Article -->
<g id="node17" class="node">
<title>Article</title>
<ellipse fill="none" stroke="black" cx="758.25" cy="-399" rx="41.69" ry="18"/>
<text text-anchor="middle" x="758.25" y="-395.3" font-family="Times,serif" font-size="14.00">Article</text>
</g>
</g>
</svg>
