<?xml version="1.0" encoding="UTF-8" standalone="no"?>
<!DOCTYPE svg PUBLIC "-//W3C//DTD SVG 1.1//EN"
 "http://www.w3.org/Graphics/SVG/1.1/DTD/svg11.dtd">
<!-- Generated by graphviz version 2.43.0 (0)
 -->
<!-- Title: models_diagram Pages: 1 -->
<svg width="2168pt" height="1310pt"
 viewBox="0.00 0.00 2168.00 1310.00" xmlns="http://www.w3.org/2000/svg" xmlns:xlink="http://www.w3.org/1999/xlink">
<g id="graph0" class="graph" transform="scale(1 1) rotate(0) translate(4 1306)">
<title>models_diagram</title>
<polygon fill="transparent" stroke="transparent" points="-4,4 -4,-1306 2164,-1306 2164,4 -4,4"/>
<!-- _diagram_info -->
<g id="node1" class="node">
<title>_diagram_info</title>
<text text-anchor="start" x="738" y="-1243.1" font-family="Times,serif" font-size="13.00">Models diagram</text>
<text text-anchor="start" x="738" y="-1229.1" font-family="Times,serif" font-size="13.00">Date: Oct 16 2021 &#45; 20:49</text>
<text text-anchor="start" x="738" y="-1215.1" font-family="Times,serif" font-size="13.00">Migration version: 20211008171657</text>
<text text-anchor="start" x="738" y="-1201.1" font-family="Times,serif" font-size="13.00">Generated by RailRoady 1.6.0</text>
<text text-anchor="start" x="738" y="-1187.1" font-family="Times,serif" font-size="13.00">http://railroady.prestonlee.com</text>
</g>
<!-- Venue -->
<g id="node2" class="node">
<title>Venue</title>
<path fill="none" stroke="black" d="M1019,-1135.5C1019,-1135.5 1310,-1135.5 1310,-1135.5 1316,-1135.5 1322,-1141.5 1322,-1147.5 1322,-1147.5 1322,-1289.5 1322,-1289.5 1322,-1295.5 1316,-1301.5 1310,-1301.5 1310,-1301.5 1019,-1301.5 1019,-1301.5 1013,-1301.5 1007,-1295.5 1007,-1289.5 1007,-1289.5 1007,-1147.5 1007,-1147.5 1007,-1141.5 1013,-1135.5 1019,-1135.5"/>
<text text-anchor="middle" x="1164.5" y="-1286.3" font-family="Times,serif" font-size="14.00">Venue</text>
<polyline fill="none" stroke="black" points="1007,-1278.5 1322,-1278.5 "/>
<text text-anchor="start" x="1015" y="-1263.3" font-family="Times,serif" font-size="14.00">id :integer</text>
<text text-anchor="start" x="1015" y="-1248.3" font-family="Times,serif" font-size="14.00">name :character varying</text>
<text text-anchor="start" x="1015" y="-1233.3" font-family="Times,serif" font-size="14.00">address :text</text>
<text text-anchor="start" x="1015" y="-1218.3" font-family="Times,serif" font-size="14.00">created_at :timestamp without time zone</text>
<text text-anchor="start" x="1015" y="-1203.3" font-family="Times,serif" font-size="14.00">updated_at :timestamp without time zone</text>
<text text-anchor="start" x="1015" y="-1188.3" font-family="Times,serif" font-size="14.00">user_id :integer</text>
<text text-anchor="start" x="1015" y="-1173.3" font-family="Times,serif" font-size="14.00">locality_id :integer</text>
<text text-anchor="start" x="1015" y="-1158.3" font-family="Times,serif" font-size="14.00">seats :integer</text>
<text text-anchor="start" x="1015" y="-1143.3" font-family="Times,serif" font-size="14.00">avatar :character varying</text>
</g>
<!-- VenueBooking -->
<g id="node5" class="node">
<title>VenueBooking</title>
<path fill="none" stroke="black" d="M833,-962.5C833,-962.5 1150,-962.5 1150,-962.5 1156,-962.5 1162,-968.5 1162,-974.5 1162,-974.5 1162,-1086.5 1162,-1086.5 1162,-1092.5 1156,-1098.5 1150,-1098.5 1150,-1098.5 833,-1098.5 833,-1098.5 827,-1098.5 821,-1092.5 821,-1086.5 821,-1086.5 821,-974.5 821,-974.5 821,-968.5 827,-962.5 833,-962.5"/>
<text text-anchor="middle" x="991.5" y="-1083.3" font-family="Times,serif" font-size="14.00">VenueBooking</text>
<polyline fill="none" stroke="black" points="821,-1075.5 1162,-1075.5 "/>
<text text-anchor="start" x="829" y="-1060.3" font-family="Times,serif" font-size="14.00">id :integer</text>
<text text-anchor="start" x="829" y="-1045.3" font-family="Times,serif" font-size="14.00">start_datetime :timestamp without time zone</text>
<text text-anchor="start" x="829" y="-1030.3" font-family="Times,serif" font-size="14.00">end_datetime :timestamp without time zone</text>
<text text-anchor="start" x="829" y="-1015.3" font-family="Times,serif" font-size="14.00">venue_id :integer</text>
<text text-anchor="start" x="829" y="-1000.3" font-family="Times,serif" font-size="14.00">created_at :timestamp without time zone</text>
<text text-anchor="start" x="829" y="-985.3" font-family="Times,serif" font-size="14.00">updated_at :timestamp without time zone</text>
<text text-anchor="start" x="829" y="-970.3" font-family="Times,serif" font-size="14.00">event_id :integer</text>
</g>
<!-- Venue&#45;&gt;VenueBooking -->
<g id="edge1" class="edge">
<title>Venue&#45;&gt;VenueBooking</title>
<path fill="none" stroke="#ee954c" d="M1081.14,-1127.88C1074.43,-1120.66 1067.7,-1113.42 1061.1,-1106.33"/>
<polygon fill="#ee954c" stroke="#ee954c" points="1081.31,-1128.05 1084.82,-1138.44 1084.71,-1131.72 1088.12,-1135.38 1088.12,-1135.38 1088.12,-1135.38 1084.71,-1131.72 1091.41,-1132.31 1081.31,-1128.05 1081.31,-1128.05"/>
<polygon fill="#ee954c" stroke="#ee954c" points="1060.81,-1106.01 1057.29,-1095.63 1057.4,-1102.35 1054,-1098.69 1054,-1098.69 1054,-1098.69 1057.4,-1102.35 1050.7,-1101.76 1060.81,-1106.01 1060.81,-1106.01"/>
</g>
<!-- City -->
<g id="node7" class="node">
<title>City</title>
<path fill="none" stroke="black" d="M1192,-985C1192,-985 1483,-985 1483,-985 1489,-985 1495,-991 1495,-997 1495,-997 1495,-1064 1495,-1064 1495,-1070 1489,-1076 1483,-1076 1483,-1076 1192,-1076 1192,-1076 1186,-1076 1180,-1070 1180,-1064 1180,-1064 1180,-997 1180,-997 1180,-991 1186,-985 1192,-985"/>
<text text-anchor="middle" x="1337.5" y="-1060.8" font-family="Times,serif" font-size="14.00">City</text>
<polyline fill="none" stroke="black" points="1180,-1053 1495,-1053 "/>
<text text-anchor="start" x="1188" y="-1037.8" font-family="Times,serif" font-size="14.00">id :integer</text>
<text text-anchor="start" x="1188" y="-1022.8" font-family="Times,serif" font-size="14.00">name :character varying</text>
<text text-anchor="start" x="1188" y="-1007.8" font-family="Times,serif" font-size="14.00">created_at :timestamp without time zone</text>
<text text-anchor="start" x="1188" y="-992.8" font-family="Times,serif" font-size="14.00">updated_at :timestamp without time zone</text>
</g>
<!-- Venue&#45;&gt;City -->
<g id="edge6" class="edge">
<title>Venue&#45;&gt;City</title>
<path fill="none" stroke="#9fd3ed" d="M1248,-1127.72C1262.05,-1112.62 1276.2,-1097.41 1288.97,-1083.68"/>
<polygon fill="#9fd3ed" stroke="#9fd3ed" points="1247.69,-1128.05 1237.59,-1132.31 1244.29,-1131.72 1240.88,-1135.38 1240.88,-1135.38 1240.88,-1135.38 1244.29,-1131.72 1244.18,-1138.44 1247.69,-1128.05 1247.69,-1128.05"/>
<polygon fill="#9fd3ed" stroke="#9fd3ed" points="1289.1,-1083.53 1299.21,-1079.28 1292.51,-1079.87 1295.91,-1076.21 1295.91,-1076.21 1295.91,-1076.21 1292.51,-1079.87 1292.62,-1073.15 1289.1,-1083.53 1289.1,-1083.53"/>
</g>
<!-- Event -->
<g id="node8" class="node">
<title>Event</title>
<path fill="none" stroke="black" d="M833,-684.5C833,-684.5 1150,-684.5 1150,-684.5 1156,-684.5 1162,-690.5 1162,-696.5 1162,-696.5 1162,-913.5 1162,-913.5 1162,-919.5 1156,-925.5 1150,-925.5 1150,-925.5 833,-925.5 833,-925.5 827,-925.5 821,-919.5 821,-913.5 821,-913.5 821,-696.5 821,-696.5 821,-690.5 827,-684.5 833,-684.5"/>
<text text-anchor="middle" x="991.5" y="-910.3" font-family="Times,serif" font-size="14.00">Event</text>
<polyline fill="none" stroke="black" points="821,-902.5 1162,-902.5 "/>
<text text-anchor="start" x="829" y="-887.3" font-family="Times,serif" font-size="14.00">id :integer</text>
<text text-anchor="start" x="829" y="-872.3" font-family="Times,serif" font-size="14.00">name :character varying</text>
<text text-anchor="start" x="829" y="-857.3" font-family="Times,serif" font-size="14.00">description :text</text>
<text text-anchor="start" x="829" y="-842.3" font-family="Times,serif" font-size="14.00">venue_id :integer</text>
<text text-anchor="start" x="829" y="-827.3" font-family="Times,serif" font-size="14.00">start_datetime :timestamp without time zone</text>
<text text-anchor="start" x="829" y="-812.3" font-family="Times,serif" font-size="14.00">end_datetime :timestamp without time zone</text>
<text text-anchor="start" x="829" y="-797.3" font-family="Times,serif" font-size="14.00">entry_fee :double precision</text>
<text text-anchor="start" x="829" y="-782.3" font-family="Times,serif" font-size="14.00">status :character varying</text>
<text text-anchor="start" x="829" y="-767.3" font-family="Times,serif" font-size="14.00">locality_id :integer</text>
<text text-anchor="start" x="829" y="-752.3" font-family="Times,serif" font-size="14.00">created_at :timestamp without time zone</text>
<text text-anchor="start" x="829" y="-737.3" font-family="Times,serif" font-size="14.00">updated_at :timestamp without time zone</text>
<text text-anchor="start" x="829" y="-722.3" font-family="Times,serif" font-size="14.00">user_id :integer</text>
<text text-anchor="start" x="829" y="-707.3" font-family="Times,serif" font-size="14.00">tickets_left :integer</text>
<text text-anchor="start" x="829" y="-692.3" font-family="Times,serif" font-size="14.00">avatar :character varying</text>
</g>
<!-- Venue&#45;&gt;Event -->
<g id="edge2" class="edge">
<title>Venue&#45;&gt;Event</title>
<path fill="none" stroke="#67d792" d="M997.06,-1134.9C914.38,-1111.93 863.39,-1161.84 811.5,-1099 772.73,-1052.05 786.21,-1017.39 811.5,-962 815.97,-952.21 821.39,-942.79 827.53,-933.78"/>
<polygon fill="#67d792" stroke="#67d792" points="997.21,-1134.94 1005.44,-1142.19 1001.99,-1136.41 1006.76,-1137.89 1006.76,-1137.89 1006.76,-1137.89 1001.99,-1136.41 1008.09,-1133.59 997.21,-1134.94 997.21,-1134.94"/>
<polygon fill="#67d792" stroke="#67d792" points="827.55,-933.76 837.02,-928.24 830.45,-929.69 833.36,-925.62 833.36,-925.62 833.36,-925.62 830.45,-929.69 829.7,-923.01 827.55,-933.76 827.55,-933.76"/>
</g>
<!-- Locality -->
<g id="node10" class="node">
<title>Locality</title>
<path fill="none" stroke="black" d="M1256,-511.5C1256,-511.5 1547,-511.5 1547,-511.5 1553,-511.5 1559,-517.5 1559,-523.5 1559,-523.5 1559,-605.5 1559,-605.5 1559,-611.5 1553,-617.5 1547,-617.5 1547,-617.5 1256,-617.5 1256,-617.5 1250,-617.5 1244,-611.5 1244,-605.5 1244,-605.5 1244,-523.5 1244,-523.5 1244,-517.5 1250,-511.5 1256,-511.5"/>
<text text-anchor="middle" x="1401.5" y="-602.3" font-family="Times,serif" font-size="14.00">Locality</text>
<polyline fill="none" stroke="black" points="1244,-594.5 1559,-594.5 "/>
<text text-anchor="start" x="1252" y="-579.3" font-family="Times,serif" font-size="14.00">id :integer</text>
<text text-anchor="start" x="1252" y="-564.3" font-family="Times,serif" font-size="14.00">name :character varying</text>
<text text-anchor="start" x="1252" y="-549.3" font-family="Times,serif" font-size="14.00">city_id :integer</text>
<text text-anchor="start" x="1252" y="-534.3" font-family="Times,serif" font-size="14.00">created_at :timestamp without time zone</text>
<text text-anchor="start" x="1252" y="-519.3" font-family="Times,serif" font-size="14.00">updated_at :timestamp without time zone</text>
</g>
<!-- Venue&#45;&gt;Locality -->
<g id="edge4" class="edge">
<title>Venue&#45;&gt;Locality</title>
<path fill="none" stroke="#f50ce9" d="M1331.91,-1135.25C1409.59,-1113.18 1456.88,-1157.55 1504.5,-1099 1617.39,-960.2 1506.46,-734.22 1441.4,-626.44"/>
<polygon fill="#f50ce9" stroke="#f50ce9" points="1331.82,-1135.28 1320.93,-1134 1327.06,-1136.79 1322.29,-1138.29 1322.29,-1138.29 1322.29,-1138.29 1327.06,-1136.79 1323.64,-1142.58 1331.82,-1135.28 1331.82,-1135.28"/>
<polygon fill="#f50ce9" stroke="#f50ce9" points="1441.24,-626.17 1439.87,-615.29 1438.63,-621.9 1436.03,-617.63 1436.03,-617.63 1436.03,-617.63 1438.63,-621.9 1432.19,-619.97 1441.24,-626.17 1441.24,-626.17"/>
</g>
<!-- User -->
<g id="node12" class="node">
<title>User</title>
<path fill="none" stroke="black" d="M236.5,-203.5C236.5,-203.5 618.5,-203.5 618.5,-203.5 624.5,-203.5 630.5,-209.5 630.5,-215.5 630.5,-215.5 630.5,-432.5 630.5,-432.5 630.5,-438.5 624.5,-444.5 618.5,-444.5 618.5,-444.5 236.5,-444.5 236.5,-444.5 230.5,-444.5 224.5,-438.5 224.5,-432.5 224.5,-432.5 224.5,-215.5 224.5,-215.5 224.5,-209.5 230.5,-203.5 236.5,-203.5"/>
<text text-anchor="middle" x="427.5" y="-429.3" font-family="Times,serif" font-size="14.00">User</text>
<polyline fill="none" stroke="black" points="224.5,-421.5 630.5,-421.5 "/>
<text text-anchor="start" x="232.5" y="-406.3" font-family="Times,serif" font-size="14.00">id :integer</text>
<text text-anchor="start" x="232.5" y="-391.3" font-family="Times,serif" font-size="14.00">email :character varying</text>
<text text-anchor="start" x="232.5" y="-376.3" font-family="Times,serif" font-size="14.00">encrypted_password :character varying</text>
<text text-anchor="start" x="232.5" y="-361.3" font-family="Times,serif" font-size="14.00">reset_password_token :character varying</text>
<text text-anchor="start" x="232.5" y="-346.3" font-family="Times,serif" font-size="14.00">reset_password_sent_at :timestamp without time zone</text>
<text text-anchor="start" x="232.5" y="-331.3" font-family="Times,serif" font-size="14.00">remember_created_at :timestamp without time zone</text>
<text text-anchor="start" x="232.5" y="-316.3" font-family="Times,serif" font-size="14.00">sign_in_count :integer</text>
<text text-anchor="start" x="232.5" y="-301.3" font-family="Times,serif" font-size="14.00">current_sign_in_at :timestamp without time zone</text>
<text text-anchor="start" x="232.5" y="-286.3" font-family="Times,serif" font-size="14.00">last_sign_in_at :timestamp without time zone</text>
<text text-anchor="start" x="232.5" y="-271.3" font-family="Times,serif" font-size="14.00">current_sign_in_ip :character varying</text>
<text text-anchor="start" x="232.5" y="-256.3" font-family="Times,serif" font-size="14.00">last_sign_in_ip :character varying</text>
<text text-anchor="start" x="232.5" y="-241.3" font-family="Times,serif" font-size="14.00">created_at :timestamp without time zone</text>
<text text-anchor="start" x="232.5" y="-226.3" font-family="Times,serif" font-size="14.00">updated_at :timestamp without time zone</text>
<text text-anchor="start" x="232.5" y="-211.3" font-family="Times,serif" font-size="14.00">username :character varying</text>
</g>
<!-- Venue&#45;&gt;User -->
<g id="edge5" class="edge">
<title>Venue&#45;&gt;User</title>
<path fill="none" stroke="#0b2312" d="M997.01,-1134.74C904.09,-1107.03 870.44,-1133.85 783.5,-1099 452.37,-966.25 286.47,-963.26 119.5,-648 84.76,-582.41 80.64,-544.24 119.5,-481 142.31,-443.89 176.98,-415.27 214.96,-393.32"/>
<polygon fill="#0b2312" stroke="#0b2312" points="997.25,-1134.82 1005.46,-1142.09 1002.02,-1136.31 1006.8,-1137.79 1006.8,-1137.79 1006.8,-1137.79 1002.02,-1136.31 1008.14,-1133.5 997.25,-1134.82 997.25,-1134.82"/>
<polygon fill="#0b2312" stroke="#0b2312" points="215.42,-393.06 226.35,-392.1 219.79,-390.62 224.15,-388.17 224.15,-388.17 224.15,-388.17 219.79,-390.62 221.95,-384.25 215.42,-393.06 215.42,-393.06"/>
</g>
<!-- Comment -->
<g id="node14" class="node">
<title>Comment</title>
<path fill="none" stroke="black" d="M1070,-0.5C1070,-0.5 1361,-0.5 1361,-0.5 1367,-0.5 1373,-6.5 1373,-12.5 1373,-12.5 1373,-154.5 1373,-154.5 1373,-160.5 1367,-166.5 1361,-166.5 1361,-166.5 1070,-166.5 1070,-166.5 1064,-166.5 1058,-160.5 1058,-154.5 1058,-154.5 1058,-12.5 1058,-12.5 1058,-6.5 1064,-0.5 1070,-0.5"/>
<text text-anchor="middle" x="1215.5" y="-151.3" font-family="Times,serif" font-size="14.00">Comment</text>
<polyline fill="none" stroke="black" points="1058,-143.5 1373,-143.5 "/>
<text text-anchor="start" x="1066" y="-128.3" font-family="Times,serif" font-size="14.00">id :integer</text>
<text text-anchor="start" x="1066" y="-113.3" font-family="Times,serif" font-size="14.00">commenter :character varying</text>
<text text-anchor="start" x="1066" y="-98.3" font-family="Times,serif" font-size="14.00">body :text</text>
<text text-anchor="start" x="1066" y="-83.3" font-family="Times,serif" font-size="14.00">event_id :integer</text>
<text text-anchor="start" x="1066" y="-68.3" font-family="Times,serif" font-size="14.00">created_at :timestamp without time zone</text>
<text text-anchor="start" x="1066" y="-53.3" font-family="Times,serif" font-size="14.00">updated_at :timestamp without time zone</text>
<text text-anchor="start" x="1066" y="-38.3" font-family="Times,serif" font-size="14.00">user_id :integer</text>
<text text-anchor="start" x="1066" y="-23.3" font-family="Times,serif" font-size="14.00">username :character varying</text>
<text text-anchor="start" x="1066" y="-8.3" font-family="Times,serif" font-size="14.00">venue_id :integer</text>
</g>
<!-- Venue&#45;&gt;Comment -->
<g id="edge3" class="edge">
<title>Venue&#45;&gt;Comment</title>
<path fill="none" stroke="#18581a" d="M1331.98,-1135.21C1425.12,-1109.61 1477.22,-1164.19 1541.5,-1099 1634.05,-1005.14 1587.5,-937.82 1587.5,-806 1587.5,-806 1587.5,-806 1587.5,-563.5 1587.5,-400.17 1450.92,-258.91 1343.28,-172.94"/>
<polygon fill="#18581a" stroke="#18581a" points="1331.81,-1135.26 1320.94,-1133.83 1327.02,-1136.7 1322.24,-1138.14 1322.24,-1138.14 1322.24,-1138.14 1327.02,-1136.7 1323.53,-1142.45 1331.81,-1135.26 1331.81,-1135.26"/>
<polygon fill="#18581a" stroke="#18581a" points="1343.09,-172.79 1338.04,-163.06 1339.17,-169.69 1335.25,-166.59 1335.25,-166.59 1335.25,-166.59 1339.17,-169.69 1332.46,-170.12 1343.09,-172.79 1343.09,-172.79"/>
</g>
<!-- Ability -->
<g id="node3" class="node">
<title>Ability</title>
<polygon fill="none" stroke="black" points="1340,-1195.5 1340,-1241.5 1403,-1241.5 1403,-1195.5 1340,-1195.5"/>
<text text-anchor="middle" x="1371.5" y="-1226.3" font-family="Times,serif" font-size="14.00">Ability</text>
<polyline fill="none" stroke="black" points="1340,-1218.5 1403,-1218.5 "/>
<text text-anchor="middle" x="1371.5" y="-1203.3" font-family="Times,serif" font-size="14.00"> </text>
</g>
<!-- AdminUser -->
<g id="node4" class="node">
<title>AdminUser</title>
<path fill="none" stroke="black" d="M1432.5,-1158C1432.5,-1158 1814.5,-1158 1814.5,-1158 1820.5,-1158 1826.5,-1164 1826.5,-1170 1826.5,-1170 1826.5,-1267 1826.5,-1267 1826.5,-1273 1820.5,-1279 1814.5,-1279 1814.5,-1279 1432.5,-1279 1432.5,-1279 1426.5,-1279 1420.5,-1273 1420.5,-1267 1420.5,-1267 1420.5,-1170 1420.5,-1170 1420.5,-1164 1426.5,-1158 1432.5,-1158"/>
<text text-anchor="middle" x="1623.5" y="-1263.8" font-family="Times,serif" font-size="14.00">AdminUser</text>
<polyline fill="none" stroke="black" points="1420.5,-1256 1826.5,-1256 "/>
<text text-anchor="start" x="1428.5" y="-1240.8" font-family="Times,serif" font-size="14.00">id :integer</text>
<text text-anchor="start" x="1428.5" y="-1225.8" font-family="Times,serif" font-size="14.00">email :character varying</text>
<text text-anchor="start" x="1428.5" y="-1210.8" font-family="Times,serif" font-size="14.00">encrypted_password :character varying</text>
<text text-anchor="start" x="1428.5" y="-1195.8" font-family="Times,serif" font-size="14.00">reset_password_token :character varying</text>
<text text-anchor="start" x="1428.5" y="-1180.8" font-family="Times,serif" font-size="14.00">reset_password_sent_at :timestamp without time zone</text>
<text text-anchor="start" x="1428.5" y="-1165.8" font-family="Times,serif" font-size="14.00">remember_created_at :timestamp without time zone</text>
</g>
<!-- VenueBooking&#45;&gt;Event -->
<g id="edge7" class="edge">
<title>VenueBooking&#45;&gt;Event</title>
<path fill="none" stroke="#37adb9" d="M991.5,-952.4C991.5,-946.97 991.5,-941.42 991.5,-935.8"/>
<polygon fill="#37adb9" stroke="#37adb9" points="991.5,-952.44 987,-962.44 991.5,-957.44 991.5,-962.44 991.5,-962.44 991.5,-962.44 991.5,-957.44 996,-962.44 991.5,-952.44 991.5,-952.44"/>
<polygon fill="#37adb9" stroke="#37adb9" points="991.5,-935.64 996,-925.64 991.5,-930.64 991.5,-925.64 991.5,-925.64 991.5,-925.64 991.5,-930.64 987,-925.64 991.5,-935.64 991.5,-935.64"/>
</g>
<!-- Role -->
<g id="node6" class="node">
<title>Role</title>
<path fill="none" stroke="black" d="M513,-519C513,-519 804,-519 804,-519 810,-519 816,-525 816,-531 816,-531 816,-598 816,-598 816,-604 810,-610 804,-610 804,-610 513,-610 513,-610 507,-610 501,-604 501,-598 501,-598 501,-531 501,-531 501,-525 507,-519 513,-519"/>
<text text-anchor="middle" x="658.5" y="-594.8" font-family="Times,serif" font-size="14.00">Role</text>
<polyline fill="none" stroke="black" points="501,-587 816,-587 "/>
<text text-anchor="start" x="509" y="-571.8" font-family="Times,serif" font-size="14.00">id :integer</text>
<text text-anchor="start" x="509" y="-556.8" font-family="Times,serif" font-size="14.00">name :character varying</text>
<text text-anchor="start" x="509" y="-541.8" font-family="Times,serif" font-size="14.00">created_at :timestamp without time zone</text>
<text text-anchor="start" x="509" y="-526.8" font-family="Times,serif" font-size="14.00">updated_at :timestamp without time zone</text>
</g>
<!-- Role&#45;&gt;User -->
<g id="edge9" class="edge">
<title>Role&#45;&gt;User</title>
<path fill="none" stroke="#490a2e" d="M608.14,-511.51C590.96,-493.77 570.92,-473.08 550.57,-452.06"/>
<polygon fill="#490a2e" stroke="#490a2e" points="608.36,-511.74 612.09,-522.05 611.84,-515.33 615.32,-518.92 615.32,-518.92 615.32,-518.92 611.84,-515.33 618.55,-515.79 608.36,-511.74 608.36,-511.74"/>
<polygon fill="#490a2e" stroke="#490a2e" points="550.31,-451.8 546.59,-441.49 546.84,-448.21 543.36,-444.62 543.36,-444.62 543.36,-444.62 546.84,-448.21 540.12,-447.75 550.31,-451.8 550.31,-451.8"/>
</g>
<!-- Permission -->
<g id="node16" class="node">
<title>Permission</title>
<path fill="none" stroke="black" d="M401,-30.5C401,-30.5 692,-30.5 692,-30.5 698,-30.5 704,-36.5 704,-42.5 704,-42.5 704,-124.5 704,-124.5 704,-130.5 698,-136.5 692,-136.5 692,-136.5 401,-136.5 401,-136.5 395,-136.5 389,-130.5 389,-124.5 389,-124.5 389,-42.5 389,-42.5 389,-36.5 395,-30.5 401,-30.5"/>
<text text-anchor="middle" x="546.5" y="-121.3" font-family="Times,serif" font-size="14.00">Permission</text>
<polyline fill="none" stroke="black" points="389,-113.5 704,-113.5 "/>
<text text-anchor="start" x="397" y="-98.3" font-family="Times,serif" font-size="14.00">id :integer</text>
<text text-anchor="start" x="397" y="-83.3" font-family="Times,serif" font-size="14.00">user_id :integer</text>
<text text-anchor="start" x="397" y="-68.3" font-family="Times,serif" font-size="14.00">role_id :integer</text>
<text text-anchor="start" x="397" y="-53.3" font-family="Times,serif" font-size="14.00">created_at :timestamp without time zone</text>
<text text-anchor="start" x="397" y="-38.3" font-family="Times,serif" font-size="14.00">updated_at :timestamp without time zone</text>
</g>
<!-- Role&#45;&gt;Permission -->
<g id="edge8" class="edge">
<title>Role&#45;&gt;Permission</title>
<path fill="none" stroke="#ae5186" d="M665.61,-508.48C672.79,-435.93 677.96,-305.49 639.5,-203 631.69,-182.19 618.82,-162.14 605.1,-144.64"/>
<polygon fill="#ae5186" stroke="#ae5186" points="665.58,-508.81 660.07,-518.29 665.06,-513.78 664.55,-518.76 664.55,-518.76 664.55,-518.76 665.06,-513.78 669.02,-519.22 665.58,-508.81 665.58,-508.81"/>
<polygon fill="#ae5186" stroke="#ae5186" points="605.04,-144.56 602.26,-133.95 601.9,-140.67 598.76,-136.78 598.76,-136.78 598.76,-136.78 601.9,-140.67 595.26,-139.61 605.04,-144.56 605.04,-144.56"/>
</g>
<!-- City&#45;&gt;Event -->
<g id="edge11" class="edge">
<title>City&#45;&gt;Event</title>
<path fill="none" stroke="#5d00e5" d="M1259.86,-979.35C1233.16,-962.1 1202.05,-942.01 1170.67,-921.74"/>
<polygon fill="#5d00e5" stroke="#5d00e5" points="1259.91,-979.38 1265.87,-988.59 1264.11,-982.1 1268.31,-984.81 1268.31,-984.81 1268.31,-984.81 1264.11,-982.1 1270.76,-981.03 1259.91,-979.38 1259.91,-979.38"/>
<polygon fill="#5d00e5" stroke="#5d00e5" points="1170.66,-921.73 1164.7,-912.52 1166.46,-919.02 1162.26,-916.3 1162.26,-916.3 1162.26,-916.3 1166.46,-919.02 1159.82,-920.08 1170.66,-921.73 1170.66,-921.73"/>
</g>
<!-- City&#45;&gt;Locality -->
<g id="edge10" class="edge">
<title>City&#45;&gt;Locality</title>
<path fill="none" stroke="#18ce3e" d="M1345.08,-974.57C1357.06,-887.67 1380.32,-719.02 1392.91,-627.76"/>
<polygon fill="#18ce3e" stroke="#18ce3e" points="1345.06,-974.68 1339.24,-983.97 1344.38,-979.64 1343.69,-984.59 1343.69,-984.59 1343.69,-984.59 1344.38,-979.64 1348.15,-985.2 1345.06,-974.68 1345.06,-974.68"/>
<polygon fill="#18ce3e" stroke="#18ce3e" points="1392.92,-627.74 1398.74,-618.45 1393.6,-622.79 1394.28,-617.83 1394.28,-617.83 1394.28,-617.83 1393.6,-622.79 1389.82,-617.22 1392.92,-627.74 1392.92,-627.74"/>
</g>
<!-- Category -->
<g id="node9" class="node">
<title>Category</title>
<path fill="none" stroke="black" d="M846,-519C846,-519 1137,-519 1137,-519 1143,-519 1149,-525 1149,-531 1149,-531 1149,-598 1149,-598 1149,-604 1143,-610 1137,-610 1137,-610 846,-610 846,-610 840,-610 834,-604 834,-598 834,-598 834,-531 834,-531 834,-525 840,-519 846,-519"/>
<text text-anchor="middle" x="991.5" y="-594.8" font-family="Times,serif" font-size="14.00">Category</text>
<polyline fill="none" stroke="black" points="834,-587 1149,-587 "/>
<text text-anchor="start" x="842" y="-571.8" font-family="Times,serif" font-size="14.00">id :integer</text>
<text text-anchor="start" x="842" y="-556.8" font-family="Times,serif" font-size="14.00">name :character varying</text>
<text text-anchor="start" x="842" y="-541.8" font-family="Times,serif" font-size="14.00">created_at :timestamp without time zone</text>
<text text-anchor="start" x="842" y="-526.8" font-family="Times,serif" font-size="14.00">updated_at :timestamp without time zone</text>
</g>
<!-- Event&#45;&gt;Category -->
<g id="edge16" class="edge">
<title>Event&#45;&gt;Category</title>
<path fill="none" stroke="#fa4a63" d="M991.5,-674.17C991.5,-655.3 991.5,-636.78 991.5,-620.54"/>
<polygon fill="#fa4a63" stroke="#fa4a63" points="991.5,-674.4 987,-684.4 991.5,-679.4 991.5,-684.4 991.5,-684.4 991.5,-684.4 991.5,-679.4 996,-684.4 991.5,-674.4 991.5,-674.4"/>
<polygon fill="#fa4a63" stroke="#fa4a63" points="991.5,-620.2 996,-610.2 991.5,-615.2 991.5,-610.2 991.5,-610.2 991.5,-610.2 991.5,-615.2 987,-610.2 991.5,-620.2 991.5,-620.2"/>
</g>
<!-- Event&#45;&gt;Locality -->
<g id="edge17" class="edge">
<title>Event&#45;&gt;Locality</title>
<path fill="none" stroke="#502094" d="M1170.88,-699.65C1216.26,-673.26 1263.34,-645.87 1303.04,-622.77"/>
<polygon fill="#502094" stroke="#502094" points="1170.76,-699.73 1159.85,-700.86 1166.43,-702.24 1162.11,-704.75 1162.11,-704.75 1162.11,-704.75 1166.43,-702.24 1164.37,-708.64 1170.76,-699.73 1170.76,-699.73"/>
<polygon fill="#502094" stroke="#502094" points="1303.27,-622.64 1314.18,-621.5 1307.6,-620.12 1311.92,-617.61 1311.92,-617.61 1311.92,-617.61 1307.6,-620.12 1309.66,-613.72 1303.27,-622.64 1303.27,-622.64"/>
</g>
<!-- EventBooking -->
<g id="node11" class="node">
<title>EventBooking</title>
<path fill="none" stroke="black" d="M141,-481.5C141,-481.5 432,-481.5 432,-481.5 438,-481.5 444,-487.5 444,-493.5 444,-493.5 444,-635.5 444,-635.5 444,-641.5 438,-647.5 432,-647.5 432,-647.5 141,-647.5 141,-647.5 135,-647.5 129,-641.5 129,-635.5 129,-635.5 129,-493.5 129,-493.5 129,-487.5 135,-481.5 141,-481.5"/>
<text text-anchor="middle" x="286.5" y="-632.3" font-family="Times,serif" font-size="14.00">EventBooking</text>
<polyline fill="none" stroke="black" points="129,-624.5 444,-624.5 "/>
<text text-anchor="start" x="137" y="-609.3" font-family="Times,serif" font-size="14.00">id :integer</text>
<text text-anchor="start" x="137" y="-594.3" font-family="Times,serif" font-size="14.00">event_id :integer</text>
<text text-anchor="start" x="137" y="-579.3" font-family="Times,serif" font-size="14.00">user_id :integer</text>
<text text-anchor="start" x="137" y="-564.3" font-family="Times,serif" font-size="14.00">created_at :timestamp without time zone</text>
<text text-anchor="start" x="137" y="-549.3" font-family="Times,serif" font-size="14.00">updated_at :timestamp without time zone</text>
<text text-anchor="start" x="137" y="-534.3" font-family="Times,serif" font-size="14.00">total_price :double precision</text>
<text text-anchor="start" x="137" y="-519.3" font-family="Times,serif" font-size="14.00">tickets :integer</text>
<text text-anchor="start" x="137" y="-504.3" font-family="Times,serif" font-size="14.00">customername :character varying</text>
<text text-anchor="start" x="137" y="-489.3" font-family="Times,serif" font-size="14.00">aadhar :bigint</text>
</g>
<!-- Event&#45;&gt;EventBooking -->
<g id="edge14" class="edge">
<title>Event&#45;&gt;EventBooking</title>
<path fill="none" stroke="#956c25" d="M811.14,-759.05C706.75,-731.09 573.63,-692.13 458.5,-648 457.05,-647.44 455.6,-646.88 454.14,-646.31"/>
<polygon fill="#956c25" stroke="#956c25" points="811.17,-759.06 819.67,-765.98 816,-760.34 820.83,-761.63 820.83,-761.63 820.83,-761.63 816,-760.34 821.99,-757.29 811.17,-759.06 811.17,-759.06"/>
<polygon fill="#956c25" stroke="#956c25" points="453.75,-646.16 446.13,-638.28 449.11,-644.31 444.46,-642.46 444.46,-642.46 444.46,-642.46 449.11,-644.31 442.8,-646.64 453.75,-646.16 453.75,-646.16"/>
</g>
<!-- Event&#45;&gt;User -->
<g id="edge18" class="edge">
<title>Event&#45;&gt;User</title>
<path fill="none" stroke="#a1738c" d="M810.87,-792.68C703.12,-776.26 572.02,-737.62 491.5,-648 484.69,-640.43 465.63,-541.19 450.07,-454.69"/>
<polygon fill="#a1738c" stroke="#a1738c" points="811,-792.7 820.24,-798.61 815.95,-793.43 820.9,-794.16 820.9,-794.16 820.9,-794.16 815.95,-793.43 821.55,-789.7 811,-792.7 811,-792.7"/>
<polygon fill="#a1738c" stroke="#a1738c" points="450.05,-454.6 452.72,-443.96 449.17,-449.68 448.29,-444.76 448.29,-444.76 448.29,-444.76 449.17,-449.68 443.86,-445.55 450.05,-454.6 450.05,-454.6"/>
</g>
<!-- EventCategory -->
<g id="node13" class="node">
<title>EventCategory</title>
<path fill="none" stroke="black" d="M865,-271C865,-271 1156,-271 1156,-271 1162,-271 1168,-277 1168,-283 1168,-283 1168,-365 1168,-365 1168,-371 1162,-377 1156,-377 1156,-377 865,-377 865,-377 859,-377 853,-371 853,-365 853,-365 853,-283 853,-283 853,-277 859,-271 865,-271"/>
<text text-anchor="middle" x="1010.5" y="-361.8" font-family="Times,serif" font-size="14.00">EventCategory</text>
<polyline fill="none" stroke="black" points="853,-354 1168,-354 "/>
<text text-anchor="start" x="861" y="-338.8" font-family="Times,serif" font-size="14.00">id :integer</text>
<text text-anchor="start" x="861" y="-323.8" font-family="Times,serif" font-size="14.00">event_id :integer</text>
<text text-anchor="start" x="861" y="-308.8" font-family="Times,serif" font-size="14.00">category_id :integer</text>
<text text-anchor="start" x="861" y="-293.8" font-family="Times,serif" font-size="14.00">created_at :timestamp without time zone</text>
<text text-anchor="start" x="861" y="-278.8" font-family="Times,serif" font-size="14.00">updated_at :timestamp without time zone</text>
</g>
<!-- Event&#45;&gt;EventCategory -->
<g id="edge15" class="edge">
<title>Event&#45;&gt;EventCategory</title>
<path fill="none" stroke="#d1fd73" d="M1143.39,-675.94C1149.19,-666.98 1154.31,-657.65 1158.5,-648 1188.07,-579.92 1186,-549.94 1158.5,-481 1143.64,-443.76 1115.2,-410.31 1087.19,-384.02"/>
<polygon fill="#d1fd73" stroke="#d1fd73" points="1143.24,-676.16 1133.9,-681.9 1140.43,-680.29 1137.62,-684.43 1137.62,-684.43 1137.62,-684.43 1140.43,-680.29 1141.34,-686.96 1143.24,-676.16 1143.24,-676.16"/>
<polygon fill="#d1fd73" stroke="#d1fd73" points="1087.07,-383.91 1082.75,-373.83 1083.39,-380.53 1079.7,-377.15 1079.7,-377.15 1079.7,-377.15 1083.39,-380.53 1076.66,-380.46 1087.07,-383.91 1087.07,-383.91"/>
</g>
<!-- Event&#45;&gt;Comment -->
<g id="edge12" class="edge">
<title>Event&#45;&gt;Comment</title>
<path fill="none" stroke="#64e6f1" d="M1165,-676.14C1171.59,-667.17 1177.51,-657.78 1182.5,-648 1259.49,-497.27 1247.61,-293.43 1231.74,-176.75"/>
<polygon fill="#64e6f1" stroke="#64e6f1" points="1164.85,-676.33 1155.19,-681.52 1161.81,-680.3 1158.76,-684.26 1158.76,-684.26 1158.76,-684.26 1161.81,-680.3 1162.33,-687 1164.85,-676.33 1164.85,-676.33"/>
<polygon fill="#64e6f1" stroke="#64e6f1" points="1231.73,-176.68 1234.8,-166.15 1231.04,-171.73 1230.34,-166.78 1230.34,-166.78 1230.34,-166.78 1231.04,-171.73 1225.89,-167.4 1231.73,-176.68 1231.73,-176.68"/>
</g>
<!-- Like -->
<g id="node15" class="node">
<title>Like</title>
<path fill="none" stroke="black" d="M12,-23C12,-23 303,-23 303,-23 309,-23 315,-29 315,-35 315,-35 315,-132 315,-132 315,-138 309,-144 303,-144 303,-144 12,-144 12,-144 6,-144 0,-138 0,-132 0,-132 0,-35 0,-35 0,-29 6,-23 12,-23"/>
<text text-anchor="middle" x="157.5" y="-128.8" font-family="Times,serif" font-size="14.00">Like</text>
<polyline fill="none" stroke="black" points="0,-121 315,-121 "/>
<text text-anchor="start" x="8" y="-105.8" font-family="Times,serif" font-size="14.00">id :integer</text>
<text text-anchor="start" x="8" y="-90.8" font-family="Times,serif" font-size="14.00">event_id :integer</text>
<text text-anchor="start" x="8" y="-75.8" font-family="Times,serif" font-size="14.00">user_id :integer</text>
<text text-anchor="start" x="8" y="-60.8" font-family="Times,serif" font-size="14.00">venue_id :integer</text>
<text text-anchor="start" x="8" y="-45.8" font-family="Times,serif" font-size="14.00">created_at :timestamp without time zone</text>
<text text-anchor="start" x="8" y="-30.8" font-family="Times,serif" font-size="14.00">updated_at :timestamp without time zone</text>
</g>
<!-- Event&#45;&gt;Like -->
<g id="edge13" class="edge">
<title>Event&#45;&gt;Like</title>
<path fill="none" stroke="#b4d8e5" d="M810.88,-798.03C581.74,-786.21 205.88,-751.21 119.5,-648 1.51,-507.03 76.72,-270.32 125.43,-153.7"/>
<polygon fill="#b4d8e5" stroke="#b4d8e5" points="811.01,-798.03 820.77,-803.03 816.01,-798.29 821,-798.54 821,-798.54 821,-798.54 816.01,-798.29 821.23,-794.05 811.01,-798.03 811.01,-798.03"/>
<polygon fill="#b4d8e5" stroke="#b4d8e5" points="125.57,-153.36 133.62,-145.91 127.52,-148.76 129.47,-144.16 129.47,-144.16 129.47,-144.16 127.52,-148.76 125.33,-142.4 125.57,-153.36 125.57,-153.36"/>
</g>
<!-- Category&#45;&gt;EventCategory -->
<g id="edge19" class="edge">
<title>Category&#45;&gt;EventCategory</title>
<path fill="none" stroke="#e36fc7" d="M995.85,-508.92C998.73,-472.78 1002.51,-425.28 1005.51,-387.6"/>
<polygon fill="#e36fc7" stroke="#e36fc7" points="995.85,-508.95 990.57,-518.56 995.45,-513.94 995.05,-518.92 995.05,-518.92 995.05,-518.92 995.45,-513.94 999.54,-519.28 995.85,-508.95 995.85,-508.95"/>
<polygon fill="#e36fc7" stroke="#e36fc7" points="1005.54,-387.22 1010.82,-377.61 1005.94,-382.24 1006.34,-377.26 1006.34,-377.26 1006.34,-377.26 1005.94,-382.24 1001.85,-376.9 1005.54,-387.22 1005.54,-387.22"/>
</g>
<!-- EventBooking&#45;&gt;User -->
<g id="edge20" class="edge">
<title>EventBooking&#45;&gt;User</title>
<path fill="none" stroke="#6ace97" d="M340.17,-472.72C343.89,-466.42 347.68,-460.01 351.5,-453.56"/>
<polygon fill="#6ace97" stroke="#6ace97" points="340.11,-472.81 331.15,-479.13 337.57,-477.12 335.02,-481.42 335.02,-481.42 335.02,-481.42 337.57,-477.12 338.9,-483.71 340.11,-472.81 340.11,-472.81"/>
<polygon fill="#6ace97" stroke="#6ace97" points="351.61,-453.36 360.58,-447.04 354.16,-449.06 356.7,-444.75 356.7,-444.75 356.7,-444.75 354.16,-449.06 352.83,-442.46 351.61,-453.36 351.61,-453.36"/>
</g>
<!-- User&#45;&gt;Comment -->
<g id="edge21" class="edge">
<title>User&#45;&gt;Comment</title>
<path fill="none" stroke="#04f8b6" d="M640.5,-258.53C768.47,-219.8 928.98,-171.22 1047.88,-135.23"/>
<polygon fill="#04f8b6" stroke="#04f8b6" points="640.26,-258.61 629.38,-257.2 635.47,-260.05 630.69,-261.5 630.69,-261.5 630.69,-261.5 635.47,-260.05 631.99,-265.81 640.26,-258.61 640.26,-258.61"/>
<polygon fill="#04f8b6" stroke="#04f8b6" points="1048.23,-135.13 1059.11,-136.54 1053.02,-133.68 1057.8,-132.23 1057.8,-132.23 1057.8,-132.23 1053.02,-133.68 1056.5,-127.92 1048.23,-135.13 1048.23,-135.13"/>
</g>
<!-- User&#45;&gt;Like -->
<g id="edge22" class="edge">
<title>User&#45;&gt;Like</title>
<path fill="none" stroke="#250e50" d="M284.47,-196.65C266.67,-180.93 249.06,-165.38 232.88,-151.08"/>
<polygon fill="#250e50" stroke="#250e50" points="284.61,-196.78 289.13,-206.77 288.36,-200.09 292.1,-203.4 292.1,-203.4 292.1,-203.4 288.36,-200.09 295.08,-200.03 284.61,-196.78 284.61,-196.78"/>
<polygon fill="#250e50" stroke="#250e50" points="232.55,-150.79 228.04,-140.8 228.8,-147.48 225.06,-144.17 225.06,-144.17 225.06,-144.17 228.8,-147.48 222.08,-147.55 232.55,-150.79 232.55,-150.79"/>
</g>
<!-- User&#45;&gt;Permission -->
<g id="edge23" class="edge">
<title>User&#45;&gt;Permission</title>
<path fill="none" stroke="#72c190" d="M491.7,-194.33C500.13,-177.44 508.43,-160.8 515.92,-145.79"/>
<polygon fill="#72c190" stroke="#72c190" points="491.64,-194.45 483.15,-201.39 489.41,-198.93 487.17,-203.4 487.17,-203.4 487.17,-203.4 489.41,-198.93 491.2,-205.41 491.64,-194.45 491.64,-194.45"/>
<polygon fill="#72c190" stroke="#72c190" points="516.01,-145.61 524.5,-138.67 518.24,-141.14 520.47,-136.66 520.47,-136.66 520.47,-136.66 518.24,-141.14 516.45,-134.65 516.01,-145.61 516.01,-145.61"/>
</g>
<!-- Article -->
<g id="node17" class="node">
<title>Article</title>
<path fill="none" stroke="black" d="M1857,-1143C1857,-1143 2148,-1143 2148,-1143 2154,-1143 2160,-1149 2160,-1155 2160,-1155 2160,-1282 2160,-1282 2160,-1288 2154,-1294 2148,-1294 2148,-1294 1857,-1294 1857,-1294 1851,-1294 1845,-1288 1845,-1282 1845,-1282 1845,-1155 1845,-1155 1845,-1149 1851,-1143 1857,-1143"/>
<text text-anchor="middle" x="2002.5" y="-1278.8" font-family="Times,serif" font-size="14.00">Article</text>
<polyline fill="none" stroke="black" points="1845,-1271 2160,-1271 "/>
<text text-anchor="start" x="1853" y="-1255.8" font-family="Times,serif" font-size="14.00">id :integer</text>
<text text-anchor="start" x="1853" y="-1240.8" font-family="Times,serif" font-size="14.00">fname :character varying</text>
<text text-anchor="start" x="1853" y="-1225.8" font-family="Times,serif" font-size="14.00">age :bigint</text>
<text text-anchor="start" x="1853" y="-1210.8" font-family="Times,serif" font-size="14.00">address :character varying</text>
<text text-anchor="start" x="1853" y="-1195.8" font-family="Times,serif" font-size="14.00">phnmbr :bigint</text>
<text text-anchor="start" x="1853" y="-1180.8" font-family="Times,serif" font-size="14.00">mname :character varying</text>
<text text-anchor="start" x="1853" y="-1165.8" font-family="Times,serif" font-size="14.00">created_at :timestamp without time zone</text>
<text text-anchor="start" x="1853" y="-1150.8" font-family="Times,serif" font-size="14.00">updated_at :timestamp without time zone</text>
</g>
</g>
</svg>
